<?xml version="1.0" encoding="UTF-8" standalone="no"?>
<svg
   enable-background="new 0 0 128 128"
   viewBox="0 0 38.580639 120"
   version="1.1"
   id="svg53"
   xml:space="preserve"
   width="38.580639"
   height="120"
   xmlns:xlink="http://www.w3.org/1999/xlink"
   xmlns="http://www.w3.org/2000/svg"
   xmlns:svg="http://www.w3.org/2000/svg"><path
     d="M 3.54,100.34"
     fill="#b42002"
     id="path2" /><radialGradient
     id="n"
     cx="64"
     cy="119.99"
     r="23.787001"
     gradientTransform="matrix(1,0,0,0.305,-44.61,79.4)"
     gradientUnits="userSpaceOnUse"><stop
       stop-color="#212121"
       stop-opacity=".8"
       offset=".1396"
       id="stop2" /><stop
       stop-color="#616161"
       stop-opacity=".3"
       offset=".5461"
       id="stop3" /><stop
       stop-color="#616161"
       stop-opacity="0"
       offset=".8722"
       id="stop4" /></radialGradient><path
     d="m 34.69,116 c 0,2.21 -6.85,4 -15.3,4 -8.45,0 -15.3,-1.79 -15.3,-4 0,-2.21 6.85,-4.01 15.3,-4.01 8.45,0 15.3,1.79 15.3,4.01 z"
     fill="url(#n)"
     id="path4"
     style="fill:url(#n)" /><linearGradient
     id="f"
     x1="60.544998"
     x2="60.544998"
     y1="100.43"
     y2="111.79"
     gradientUnits="userSpaceOnUse"
     gradientTransform="translate(-44.61,-4)"><stop
       stop-color="#212121"
       offset="0"
       id="stop5" /><stop
       stop-color="#616161"
       offset=".7876"
       id="stop6" /></linearGradient><path
     d="m 19.27,104.48 c -0.01,1.54 -0.07,3.64 -2.34,3.64 -2.66,0 -4.01,-5.86 -4.19,-7.31 -0.18,-1.44 -0.18,-4.14 -0.18,-4.14 l 6.77,-0.01 z"
     fill="url(#f)"
     id="path6"
     style="fill:url(#f)" /><linearGradient
     id="e"
     x1="60.638"
     x2="60.638"
     y1="100.67"
     y2="107.52"
     gradientUnits="userSpaceOnUse"
     gradientTransform="translate(-44.61,-4)"><stop
       stop-color="#BDBDBD"
       offset=".1222"
       id="stop7" /><stop
       stop-color="#eee"
       offset=".7213"
       id="stop8" /></linearGradient><path
     d="m 18.37,101.25 c -0.01,1.09 -0.79,2.56 -1.65,2.56 -1.87,0 -2.83,-4.13 -2.95,-5.14 -0.13,-1.02 -0.13,-2.2 -0.13,-2.2 l 4.77,-0.01 z"
     fill="url(#e)"
     id="path8"
     style="fill:url(#e)" /><linearGradient
     id="d"
     x1="67.192001"
     x2="67.192001"
     y1="100.43"
     y2="111.79"
     gradientUnits="userSpaceOnUse"
     gradientTransform="translate(-44.61,-4)"><stop
       stop-color="#212121"
       offset="0"
       id="stop9" /><stop
       stop-color="#616161"
       offset=".7876"
       id="stop10" /></linearGradient><path
     d="m 19.25,104.48 c 0.01,1.54 0.19,3.64 2.34,3.64 2.66,0 4.01,-5.86 4.19,-7.31 0.18,-1.45 0.18,-4.14 0.18,-4.14 l -6.77,-0.01 z"
     fill="url(#d)"
     id="path10"
     style="fill:url(#d)" /><linearGradient
     id="c"
     x1="67.098999"
     x2="67.098999"
     y1="100.67"
     y2="107.52"
     gradientUnits="userSpaceOnUse"
     gradientTransform="translate(-44.61,-4)"><stop
       stop-color="#BDBDBD"
       offset=".1222"
       id="stop11" /><stop
       stop-color="#eee"
       offset=".7213"
       id="stop12" /></linearGradient><path
     d="m 20.14,101.25 c 0.01,1.09 0.79,2.56 1.65,2.56 1.87,0 2.83,-4.13 2.95,-5.14 0.13,-1.02 0.13,-2.2 0.13,-2.2 L 20.1,96.46 Z"
     fill="url(#c)"
     id="path12"
     style="fill:url(#c)" /><g
     opacity="0.2"
     id="g13"
     transform="translate(-44.61,-4)"><path
       d="m 69.37,102 c -0.02,0 -0.06,1.92 -0.16,2.72 -0.28,2.27 -1.71,6.42 -3.2,6.42 -0.71,0 -1.35,-0.15 -1.4,-2.18 -0.01,-0.54 -0.46,-0.96 -1,-0.96 -0.54,0 -0.99,0.42 -1,0.96 -0.03,1.9 -0.32,2.17 -1.27,2.17 -1.49,0 -2.89,-3.99 -3.16,-6.18 -0.1,-0.82 -0.16,-1.96 -0.18,-2.96 H 69 M 70.39,101 Z m 0,0 H 56.97 c 0,0 0.04,2.63 0.22,4.07 0.18,1.44 1.5,7.06 4.16,7.06 2.13,0 2.25,-1.67 2.27,-3.17 0.04,1.5 0.39,3.17 2.4,3.17 2.66,0 4.01,-5.84 4.19,-7.28 0.18,-1.45 0.18,-3.85 0.18,-3.85 z"
       fill="#424242"
       id="path13" /></g><linearGradient
     id="b"
     x1="72.803001"
     x2="79.189003"
     y1="69.716003"
     y2="69.716003"
     gradientUnits="userSpaceOnUse"
     gradientTransform="translate(-44.61,-4)"><stop
       stop-color="#FFB300"
       offset="0"
       id="stop13"
       style="stop-color:#c34422;stop-opacity:1;" /><stop
       stop-color="#FFCA28"
       offset="0.4007"
       id="stop14"
       style="stop-color:#d94b26;stop-opacity:1;" /></linearGradient><path
     d="m 29.52,70.6 c -0.27,0 -0.48,-0.09 -0.66,-0.28 -0.57,-0.59 -0.71,-1.95 -0.66,-3.02 0,-0.1 0.02,-0.2 0.04,-0.3 l 0.75,-4.26 c 0.17,-0.98 1.99,-1.9 3.28,-1.9 0.72,0.01 1.36,0.32 1.79,0.85 0.43,0.53 0.6,1.21 0.48,1.88 l -0.52,2.78 c -0.24,1.3 -0.8,2.42 -1.62,3.24 -0.56,0.56 -2.23,1.01 -2.86,1.03 h -0.02 z"
     fill="url(#b)"
     id="path14"
     style="fill:url(#b)" /><path
     d="m 32.27,61.33 h 0.03 c 0.53,0.01 1.03,0.25 1.37,0.66 0.34,0.41 0.47,0.95 0.38,1.47 l -0.52,2.78 c -0.22,1.2 -0.73,2.23 -1.48,2.97 -0.42,0.42 -1.91,0.87 -2.53,0.88 -0.13,0 -0.21,-0.03 -0.3,-0.13 -0.37,-0.39 -0.58,-1.45 -0.52,-2.65 0,-0.08 0.02,-0.16 0.03,-0.24 l 0.75,-4.26 c 0.12,-0.66 1.66,-1.48 2.79,-1.48 m 0,-1 c -1.38,0 -3.53,0.97 -3.77,2.32 l -0.75,4.26 c -0.02,0.12 -0.04,0.24 -0.04,0.37 -0.08,1.62 0.26,3.82 1.82,3.82 h 0.04 c 0.72,-0.02 2.52,-0.49 3.2,-1.18 0.94,-0.94 1.51,-2.19 1.76,-3.5 l 0.52,-2.78 c 0.32,-1.7 -0.97,-3.29 -2.71,-3.32 -0.03,0.01 -0.05,0.01 -0.07,0.01 z"
     fill="#EDA600"
     id="path15"
     style="fill:#b63f20;fill-opacity:1" /><linearGradient
     id="a"
     x1="48.622002"
     x2="54.994999"
     y1="69.671997"
     y2="69.671997"
     gradientUnits="userSpaceOnUse"
     gradientTransform="translate(-44.61,-4)"><stop
       stop-color="#FFB300"
       offset="0"
       id="stop15"
       style="stop-color:#c34422;stop-opacity:1;" /><stop
       stop-color="#FFCA28"
       offset="0.4007"
       id="stop16"
       style="stop-color:#d94b26;stop-opacity:1;" /></linearGradient><path
     d="M 9.03,70.5 C 8.23,70.48 6.5,69.86 5.89,69.12 5.21,68.3 4.75,67.26 4.52,66.03 L 4.06,63.58 c -0.12,-0.67 0.05,-1.35 0.47,-1.88 0.43,-0.53 1.06,-0.84 1.74,-0.85 3.7,0 4.07,5.92 4.07,5.98 0.03,0.17 0.04,0.27 0.04,0.38 0.05,1.06 -0.09,2.42 -0.66,3.01 -0.18,0.19 -0.39,0.28 -0.66,0.28 z"
     fill="url(#a)"
     id="path16"
     style="fill:url(#a)" /><path
     d="m 6.26,61.35 c 3.23,0.01 3.57,5.45 3.57,5.5 0,0.04 0.01,0.08 0.01,0.12 0.01,0.08 0.03,0.16 0.03,0.25 0.06,1.19 -0.15,2.26 -0.52,2.65 C 9.26,69.96 9.18,70 9.04,70 8.36,69.99 6.77,69.4 6.27,68.8 5.65,68.06 5.22,67.07 5,65.94 L 4.54,63.49 c -0.1,-0.52 0.04,-1.06 0.37,-1.47 0.33,-0.41 0.82,-0.66 1.35,-0.67 m -0.01,-1 c -1.73,0.04 -3.01,1.62 -2.69,3.32 l 0.46,2.45 c 0.23,1.21 0.7,2.37 1.48,3.32 0.75,0.9 2.65,1.54 3.52,1.56 h 0.04 c 1.56,0 1.9,-2.2 1.82,-3.82 -0.01,-0.13 -0.02,-0.25 -0.04,-0.37 -0.01,-0.01 -0.35,-6.46 -4.59,-6.46 z"
     fill="#EDA600"
     id="path17"
     style="fill:#b63f20;fill-opacity:1;stroke-width:1.00157;stroke-dasharray:none" /><linearGradient
     id="v"
     x1="63.93"
     x2="63.93"
     y1="64.635002"
     y2="98.639"
     gradientUnits="userSpaceOnUse"
     gradientTransform="translate(-44.61,-4)"><stop
       stop-color="#212121"
       offset="0"
       id="stop17" /><stop
       stop-color="#616161"
       offset=".8778"
       id="stop18" /></linearGradient><path
     d="M 25,97.96 H 13.63 c -1.04,0 -1.91,-0.79 -2.01,-1.83 L 8.56,63.72 h 21.52 l -3.07,32.41 c -0.1,1.04 -0.97,1.83 -2.01,1.83 z"
     fill="url(#v)"
     id="path18"
     style="fill:url(#v)" /><linearGradient
     id="u"
     x1="63.859001"
     x2="63.859001"
     y1="100.95"
     y2="71.864998"
     gradientUnits="userSpaceOnUse"
     gradientTransform="translate(-44.61,-4)"><stop
       stop-color="#616161"
       stop-opacity=".2"
       offset="0"
       id="stop19" /><stop
       stop-color="#212121"
       offset=".7537"
       id="stop20" /></linearGradient><path
     d="m 18.5,68.07 c -0.45,0.27 -0.72,0.77 -0.71,1.29 l 0.95,27.58 h 1.19 L 20.71,69.35 C 20.72,68.83 20.45,68.33 20,68.06 H 19.99 C 19.53,67.8 18.96,67.8 18.5,68.07 Z"
     fill="url(#u)"
     opacity="0.5"
     id="path20"
     style="fill:url(#u)" /><path
     d="m 28.75,64.86 h 5.56 c 1.05,0 1.92,-0.8 2.01,-1.84 l 0.26,-2.88 h -7.83 z"
     fill="#ffffff"
     id="path21"
     style="display:inline" /><g
     opacity="0.2"
     id="g22"
     transform="translate(-44.61,-4)"><path
       d="m 80.1,65.14 -0.16,1.79 c -0.05,0.53 -0.48,0.93 -1.02,0.93 h -4.56 v -2.72 h 5.74 m 1.09,-1 z m 0,0 h -7.83 v 4.72 h 5.56 c 1.05,0 1.92,-0.8 2.01,-1.84 z"
       fill="#424242"
       id="path22" /></g><path
     d="M 10.22,64.86 H 4.66 c -1.05,0 -1.92,-0.8 -2.01,-1.84 L 2.39,60.14 h 7.83 z"
     fill="#ffffff"
     id="path23"
     style="display:inline" /><g
     opacity="0.2"
     id="g24"
     transform="translate(-44.61,-4)"><path
       d="m 53.83,65.14 v 2.72 h -4.56 c -0.53,0 -0.97,-0.4 -1.02,-0.93 l -0.16,-1.79 h 5.74 m 1,-1 H 47 l 0.26,2.88 c 0.09,1.04 0.97,1.84 2.01,1.84 h 5.56 z"
       fill="#424242"
       id="path24"
       style="display:inline" /></g><linearGradient
     id="t"
     x1="64"
     x2="64"
     y1="39.259998"
     y2="77.495003"
     gradientUnits="userSpaceOnUse"
     gradientTransform="translate(-44.61,-4)"><stop
       stop-color="#5F5F5F"
       offset=".3285"
       id="stop24" /><stop
       stop-color="#212121"
       offset="1"
       id="stop25" /></linearGradient><path
     d="m 36.02,34.16 -6.2,-1.57 C 22.73,30.8 15.31,30.82 8.23,32.66 L 2.76,34.08 C 0.61,34.59 0.18,37.67 0.18,39.54 L 2.2,61.5 h 6.12 l 0.7,7.3 10.29,0.12 10.17,-0.08 0.81,-7.34 h 6.27 l 2.02,-21.92 c 0.02,-1.87 -0.42,-4.92 -2.56,-5.42 z"
     fill="url(#t)"
     id="path25"
     style="display:inline;opacity:1;fill:url(#t);stroke-width:1.00157;stroke-dasharray:none" /><rect
     x="17.259998"
     y="38.119999"
     width="3.47"
     height="11.52"
     fill="#ffffff"
     id="rect25" /><path
     d="m 18.95,39.14 c -1.75,0 -3.18,-1.35 -3.18,-3.01 v -3.78 h 7.09 v 3.78 c 0,1.66 -1.42,3.01 -3.17,3.01 z"
     fill="#E49800"
     id="path26"
     style="fill:#b63f20;fill-opacity:1" /><path
     d="m 22.36,32.85 v 3.28 c 0,1.38 -1.2,2.51 -2.68,2.51 h -0.74 c -1.48,0 -2.68,-1.12 -2.68,-2.51 v -3.28 h 6.1 m 1,-1 h -8.08 v 4.28 c 0,1.94 1.65,3.51 3.68,3.51 h 0.74 c 2.03,0 3.68,-1.57 3.68,-3.51 v -4.28 z"
     fill="#C78500"
     id="path27"
     style="fill:#ae3c1e;fill-opacity:1" /><polygon
     points="59.86,41.48 68.56,41.48 68.56,50.48 63.98,56.55 59.86,50.48 "
     fill="#e5e5e5"
     id="polygon27"
     transform="translate(-44.61,-4)" /><polygon
     points="65.14,43.8 66.39,53.2 64.05,57.11 61.7,53.21 62.95,43.8 "
     fill="#d32f2f"
     id="polygon28"
     transform="translate(-44.61,-4)" /><polygon
     points="61.99,41.67 62.4,40.47 65.7,40.47 66.11,41.67 65.14,43.88 62.95,43.88 "
     fill="#d32f2f"
     id="polygon29"
     transform="translate(-44.61,-4)" /><g
     id="layer2"
     style="display:inline;fill:#000000"
     transform="matrix(0.56964789,-0.00779031,0.00779031,0.56964789,6.429334,7.00091)"><g
       id="layer3"
       style="display:inline"><path
         style="display:inline;fill:none;fill-opacity:1;stroke:none;stroke-width:0;stroke-miterlimit:3.9;stroke-dasharray:none"
         id="path3"
         transform="matrix(0.61387752,0,0,0.61387752,-33.041359,-8.8410129)"
         d="m 88.246237,96.340085 -33.011462,-19.059176 -1.410746,-2.443484 -1e-6,-38.118352 1.410746,-2.443485 33.011461,-19.059177 h 2.821493 l 33.011462,19.059176 1.41075,2.443484 v 38.118352 l -1.41075,2.443484 -33.01146,19.059177 z" /><path
         style="display:inline;fill:#d94b26;fill-opacity:1;stroke-width:2.5005;stroke-miterlimit:3.9;stroke-dasharray:none"
         id="path12-3"
         transform="matrix(0.61387752,0,0,0.61387752,-33.04136,-8.8410129)"
         d="m 88.246237,96.340085 -33.011462,-19.059176 -1.410746,-2.443484 -1e-6,-38.118352 1.410746,-2.443485 33.011461,-19.059177 h 2.821493 l 33.011462,19.059176 1.41075,2.443484 v 38.118352 l -1.41075,2.443484 -33.01146,19.059177 z" /><path
         style="font-variation-settings:normal;opacity:1;fill:none;fill-opacity:1;stroke:#eeeeee;stroke-width:0.875;stroke-linecap:round;stroke-linejoin:miter;stroke-miterlimit:4;stroke-dasharray:none;stroke-dashoffset:0;stroke-opacity:1;stop-color:#000000;stop-opacity:1"
         d="M 21.997047,50.799999 V 42.462"
         id="path2-5"
         clip-path="url(#clipPath72)" /><path
         style="font-variation-settings:normal;opacity:1;fill:none;fill-opacity:1;stroke:#eeeeee;stroke-width:0.875;stroke-linecap:round;stroke-linejoin:miter;stroke-miterlimit:4;stroke-dasharray:none;stroke-dashoffset:0;stroke-opacity:1;stop-color:#000000;stop-opacity:1"
         d="m 43.994091,12.699999 -7.220919,4.168999"
         id="path33"
         clip-path="url(#clipPath70)" /><path
         style="font-variation-settings:normal;opacity:1;fill:none;fill-opacity:1;stroke:#eeeeee;stroke-width:0.875;stroke-linecap:round;stroke-linejoin:miter;stroke-miterlimit:4;stroke-dasharray:none;stroke-dashoffset:0;stroke-opacity:1;stop-color:#000000;stop-opacity:1"
         d="M 7.1511886e-7,12.7 7.2209197,16.868999"
         id="path32"
         clip-path="url(#clipPath71)" /></g><g
       id="g6"
       style="font-size:14.3774px;line-height:1.25;font-family:'URW Gothic';-inkscape-font-specification:'URW Gothic, Normal';letter-spacing:0px;word-spacing:0px;display:inline;fill:#eeeeee;stroke-width:0.258292"
       transform="matrix(0.94882612,0,0,1.1059026,-0.32514537,0)"><path
         d="M 7.292322,29.253868 H 8.4137358 L 10.627809,25.67397 h 4.945723 l 0.877003,3.579898 H 17.61508 L 15.012825,18.629191 h -1.1933 z m 3.924948,-4.543163 2.97606,-4.873837 1.150168,4.873837 z"
         id="text1"
         style="font-style:italic;font-size:14.3771px;stroke-width:0.248757"
         aria-label="A" /><path
         d="m 19.184281,24.939652 c 2.041591,-0.215661 3.134274,-1.337099 3.134274,-3.249293 0,-1.322721 -0.560719,-2.329139 -1.595892,-2.889857 -0.66136,-0.359435 -1.567136,-0.517587 -2.976122,-0.517587 h -2.631064 v 10.624899 h 1.063928 v -9.661613 h 1.495249 c 1.121438,0 1.869062,0.115019 2.444158,0.38819 0.718871,0.345057 1.121438,1.063927 1.121438,2.027213 0,1.207702 -0.546341,1.969704 -1.610269,2.242875 -0.503209,0.129396 -1.193324,0.186906 -2.372271,0.186906 l 3.579973,4.816429 h 1.32272 z"
         id="text2"
         clip-path="url(#clipPath51)"
         transform="translate(0.13492027,0.34626719)"
         aria-label="R" /><path
         d="m 23.795707,29.253979 h 1.063928 v -7.864438 h -1.063928 z m 0,-8.813347 h 1.063928 V 18.62908 h -1.063928 z"
         id="text3"
         aria-label="i" /><path
         d="m 24.817229,28.907814 h 5.80847 v -0.963286 h -4.744543 v -3.92503 h 4.586391 v -0.963286 h -4.586391 v -3.810011 h 4.744543 v -0.963286 h -5.80847 z"
         id="text5"
         clip-path="url(#clipPath50)"
         transform="translate(0.1350306,0.34616569)"
         aria-label="E" /><path
         d="m 32.392993,29.253979 h 5.463412 V 28.290693 H 33.45692 V 18.62908 h -1.063927 z"
         id="text6"
         aria-label="L" /></g></g><path
     d="m 15.09,30.81 4.19,5.59 -4.56,4.05 C 14.4,40.82 13.8,40.74 13.58,40.3 l -1.94,-7.03 c -0.15,-0.38 -0.02,-0.82 0.31,-1.06 z"
     fill="#ffffff"
     id="path29"
     style="display:inline" /><path
     d="m 23.59,30.81 -4.19,5.59 4.56,4.05 c 0.32,0.37 0.92,0.29 1.14,-0.15 l 1.94,-7.03 c 0.15,-0.38 0.02,-0.82 -0.31,-1.06 z"
     fill="#ffffff"
     id="path30"
     style="display:inline" /><polygon
     points="71.76,48.27 74.34,50.29 74.34,50.92 69.19,50.92 69.19,50.29 "
     fill="#d32f2f"
     id="polygon30"
     transform="translate(-44.61,-4)" /><linearGradient
     id="s"
     x1="57.620998"
     x2="57.620998"
     y1="29.104"
     y2="55.470001"
     gradientUnits="userSpaceOnUse"><stop
       stop-color="#616161"
       offset=".1709"
       id="stop30" /><stop
       stop-color="#212121"
       offset=".8364"
       id="stop31" /></linearGradient><polygon
     points="51.3,40.94 63.95,59.09 63.94,55.09 57.73,35.63 52.69,36.85 54.69,40.5 "
     fill="url(#s)"
     id="polygon31"
     style="fill:url(#s)"
     transform="translate(-44.61,-4)" /><linearGradient
     id="r"
     x1="70.318001"
     x2="70.318001"
     y1="29.097"
     y2="55.492001"
     gradientUnits="userSpaceOnUse"><stop
       stop-color="#616161"
       offset=".1709"
       id="stop32" /><stop
       stop-color="#212121"
       offset=".8364"
       id="stop33" /></linearGradient><polygon
     points="63.94,55.12 70.27,35.63 75.31,36.85 73.31,40.5 76.7,40.94 63.93,59.12 "
     fill="url(#r)"
     id="polygon33"
     style="display:inline;fill:url(#r)"
     transform="translate(-44.61,-4)" /><linearGradient
     id="q"
     x1="52.716999"
     x2="52.716999"
     y1="64.518997"
     y2="46.605999"
     gradientUnits="userSpaceOnUse"
     gradientTransform="translate(-44.61,-4)"><stop
       stop-color="#616161"
       stop-opacity=".2"
       offset="0"
       id="stop34" /><stop
       stop-color="#212121"
       offset=".7537"
       id="stop35" /></linearGradient><path
     d="m 7,43.57 1.01,16.94 h 1.2 L 8.9,43.37 C 8.88,43.04 8.54,42.54 7.84,42.61 7.14,42.68 6.96,43.25 7,43.57 Z"
     fill="url(#q)"
     opacity="0.5"
     id="path35"
     style="fill:url(#q)" /><linearGradient
     id="p"
     x1="75.261002"
     x2="75.261002"
     y1="64.507004"
     y2="46.605999"
     gradientUnits="userSpaceOnUse"
     gradientTransform="translate(-44.61,-4)"><stop
       stop-color="#616161"
       stop-opacity=".2"
       offset="0"
       id="stop36" /><stop
       stop-color="#212121"
       offset=".7537"
       id="stop37" /></linearGradient><path
     d="m 31.72,43.57 -1.04,16.89 -1.1,0.04 0.24,-17.13 c 0.02,-0.33 0.36,-0.83 1.06,-0.76 0.7,0.07 0.89,0.64 0.84,0.96 z"
     fill="url(#p)"
     opacity="0.5"
     id="path37"
     style="fill:url(#p)" /><circle
     cx="19.57"
     cy="59.240002"
     r="2.02"
     fill="#212121"
     id="circle37"
     style="display:inline" /><g
     opacity="0.2"
     id="g38"
     transform="translate(-44.61,-4)"><path
       d="m 63.49,36.28 c 3.68,0 7.36,0.46 10.94,1.36 l 5.78,1.49 c 1.68,0.4 1.8,3.39 1.81,4.15 L 80.08,64 h -5.36 c -0.52,0 -0.95,0.64 -1,1.15 L 70.43,99.93 C 70.41,100.15 70.29,101 69.6,101 H 58.05 c -0.53,0 -0.97,-0.42 -1.02,-0.94 L 53.74,65.16 C 53.69,64.65 53.26,64 52.74,64 H 47.53 L 45.6,43.24 c 0.01,-1.86 0.48,-4 1.83,-4.32 l 5.69,-1.41 c 3.31,-0.86 6.8,-1.23 10.37,-1.23 m 0,-1 c -3.59,0 -7.17,0.43 -10.61,1.32 l -5.69,1.47 c -2.15,0.51 -2.58,3.35 -2.58,5.21 L 46.63,65 h 6.12 l 3.29,34.91 c 0.1,1.04 0.97,2.09 2.01,2.09 H 69.6 c 1.04,0 1.73,-1.06 1.83,-2.09 L 74.72,65 h 6.27 l 2.02,-21.67 c 0,-1.86 -0.43,-4.79 -2.58,-5.29 L 74.67,36.62 C 71.04,35.69 67.26,35.28 63.49,35.28 Z"
       fill="#424242"
       id="path38" /></g><defs
     id="defs38"><rect
       id="o"
       x="47.75"
       y="4.8499999"
       width="32.34"
       height="32.34" /><clipPath
       clipPathUnits="userSpaceOnUse"
       id="clipPath50"><path
         style="fill:none;stroke-width:0.999998"
         d="M 26.314842,28.907813 V 18.275952 l 4.31092,-3.82e-4 v 10.632243 z"
         id="path51-7" /></clipPath><clipPath
       clipPathUnits="userSpaceOnUse"
       id="clipPath51"><path
         style="vector-effect:none;fill:none;fill-opacity:1;stroke-width:0.999998"
         d="M 17.427919,28.907609 V 18.282804 h 4.890302 v 10.604299 z"
         id="path52-5" /></clipPath><clipPath
       clipPathUnits="userSpaceOnUse"
       id="clipPath70"><use
         x="0"
         y="0"
         xlink:href="#path3"
         id="use70"
         style="display:inline;fill:#000000;stroke-width:0.999999" /></clipPath><clipPath
       clipPathUnits="userSpaceOnUse"
       id="clipPath71"><use
         x="0"
         y="0"
         xlink:href="#path3"
         id="use71"
         style="display:inline;fill:#000000;stroke-width:0.999999" /></clipPath><clipPath
       clipPathUnits="userSpaceOnUse"
       id="clipPath72"><use
         x="0"
         y="0"
         xlink:href="#path3"
         id="use72"
         style="display:inline;fill:#000000;stroke-width:0.999999" /></clipPath></defs><clipPath
     id="m"><use
       xlink:href="#o"
       id="use38" /></clipPath><linearGradient
     id="h"
     x1="64.189003"
     x2="64.189003"
     y1="2.6617999"
     y2="16.677"
     gradientUnits="userSpaceOnUse"
     gradientTransform="translate(-44.61,-4)"><stop
       stop-color="#616161"
       offset="0"
       id="stop49" /><stop
       stop-color="#212121"
       offset="1"
       id="stop50" /></linearGradient><path
     d="m 32.67,10.88 c 0,0 -1.24,-7.34 -2.68,-8.99 C 28.56,0.26 22.95,0.01 19.58,0 16.21,0.01 10.6,0.26 9.17,1.89 7.72,3.54 6.49,10.88 6.49,10.88 c 0,0 -5.5,1.63 -3.11,3.03 1.17,0.68 6.28,1.11 16.2,1.12 9.92,-0.01 15.03,-0.43 16.2,-1.12 2.39,-1.4 -3.11,-3.03 -3.11,-3.03 z"
     fill="url(#h)"
     id="path50"
     style="fill:url(#h)" /><g
     opacity="0.2"
     id="g51"
     transform="translate(-44.61,-4)"><path
       d="m 64.19,5 c 6.13,0.01 9.01,0.81 9.66,1.55 0.87,0.99 1.95,5.57 2.45,8.5 0.06,0.38 0.34,0.68 0.7,0.79 1.13,0.34 2.31,0.87 2.81,1.25 -0.58,0.26 -3.27,0.93 -15.62,0.94 -12.35,-0.01 -15.04,-0.68 -15.62,-0.94 0.5,-0.38 1.68,-0.91 2.81,-1.25 0.37,-0.11 0.64,-0.42 0.7,-0.79 0.49,-2.93 1.58,-7.51 2.45,-8.5 C 55.18,5.81 58.05,5.01 64.19,5 m 0,-1 c -3.37,0.01 -8.99,0.26 -10.41,1.89 -1.45,1.65 -2.68,8.99 -2.68,8.99 0,0 -5.5,1.63 -3.11,3.03 1.17,0.68 6.28,1.11 16.2,1.12 9.92,-0.01 15.03,-0.43 16.2,-1.12 2.4,-1.4 -3.11,-3.03 -3.11,-3.03 0,0 -1.24,-7.34 -2.68,-8.99 C 73.17,4.26 67.56,4.01 64.19,4 Z"
       fill="#eeeeee"
       id="path51" /></g><linearGradient
     id="g"
     x1="64"
     x2="64"
     y1="21.264"
     y2="30.285999"
     gradientUnits="userSpaceOnUse"
     gradientTransform="translate(-44.61,-4)"><stop
       stop-color="#616161"
       offset=".0049825"
       id="stop51" /><stop
       stop-color="#212121"
       offset=".4"
       id="stop52" /></linearGradient><path
     d="M 31.12,18.12 30.91,18.06 C 27.6,17.29 24.16,17.28 20.85,18.05 l -0.3,0.07 c -0.17,0.04 -0.3,0.16 -0.34,0.32 -0.42,-0.04 -0.84,-0.04 -1.26,0 C 18.9,18.29 18.78,18.16 18.6,18.12 L 18.29,18.05 C 14.98,17.29 11.51,17.29 8.2,18.06 l -0.34,0.06 c -0.23,0.05 -0.47,0.23 -0.47,0.44 v 1.08 c 0,0.27 0.35,0.48 0.64,0.44 l 0.48,2.77 c 0.29,1.89 1.97,3.58 4.77,3.58 3.29,0 4.71,-3.4 5.3,-5.72 0.66,-0.1 1.34,-0.1 2,0 0.58,2.33 2,5.72 5.29,5.72 2.81,0 4.46,-1.69 4.76,-3.58 l 0.33,-2.77 c 0.28,0.03 0.45,-0.17 0.45,-0.44 v -1.08 c -0.02,-0.21 -0.07,-0.39 -0.29,-0.44 z"
     fill="url(#g)"
     id="path52"
     style="fill:url(#g)" /><g
     opacity="0.2"
     id="g53"
     transform="translate(-44.61,-4)"><path
       d="m 70.41,22.48 c 1.58,0 3.59,0.18 4.59,0.52 v 0.18 c 0,0.14 -0.39,0.41 -0.44,0.74 l -0.37,2.77 c -0.19,1.26 -1.27,2.73 -3.74,2.73 -2.54,0 -3.73,-2.7 -4.3,-4.96 -0.1,-0.39 -0.42,-0.69 -0.82,-0.75 -0.38,-0.06 -0.77,-0.09 -1.16,-0.09 -0.38,0 -0.75,0.03 -1.13,0.08 -0.4,0.06 -0.73,0.35 -0.83,0.75 -0.57,2.27 -1.78,4.97 -4.31,4.97 -2.47,0 -3.57,-1.47 -3.77,-2.73 l -0.52,-2.77 c -0.05,-0.33 -0.63,-0.6 -0.63,-0.74 v -0.17 c 2,-0.35 3.21,-0.53 4.79,-0.53 1.62,0 3.27,0.18 4.84,0.54 l 0.11,0.02 c 0.19,0.24 0.49,0.39 0.81,0.39 h 0.1 c 0.18,-0.02 0.36,-0.02 0.54,-0.02 0.18,0 0.36,0.01 0.55,0.03 h 0.1 c 0.32,0 0.61,-0.15 0.8,-0.4 l 0.04,-0.02 c 1.57,-0.36 3.13,-0.54 4.75,-0.54 m 0.09,-1 c -1.69,0 -3.37,0.19 -5.02,0.57 l -0.31,0.07 c -0.17,0.04 -0.3,0.16 -0.35,0.32 -0.21,-0.02 -0.43,-0.03 -0.64,-0.03 -0.21,0 -0.42,0.01 -0.63,0.03 -0.05,-0.15 -0.18,-0.28 -0.35,-0.32 l -0.31,-0.07 c -1.65,-0.38 -3.33,-0.57 -5.02,-0.57 -1.7,0 -3.41,0.19 -5.07,0.58 l -0.34,0.06 C 52.24,22.17 52,22.35 52,22.56 v 1.08 c 0,0.25 0.31,0.45 0.57,0.45 h 0.1 l 0.46,2.77 c 0.29,1.89 1.96,3.58 4.76,3.58 3.29,0 4.71,-3.4 5.29,-5.72 0.33,-0.05 0.66,-0.07 0.99,-0.07 0.34,0 0.68,0.03 1.01,0.08 0.58,2.33 2,5.72 5.29,5.72 2.81,0 4.46,-1.69 4.75,-3.58 l 0.42,-2.77 h -0.03 c 0.26,0 0.38,-0.19 0.38,-0.45 v -1.08 c 0,-0.21 -0.05,-0.38 -0.27,-0.43 l -0.21,-0.06 c -1.65,-0.41 -3.31,-0.6 -5.01,-0.6 z"
       fill="#eeeeee"
       id="path53" /></g></svg>
